<?xml version="1.0" encoding="UTF-8"?>
<svg width="36px" height="37px" viewBox="0 0 36 37" version="1.1" xmlns="http://www.w3.org/2000/svg" xmlns:xlink="http://www.w3.org/1999/xlink">
    <title>Icon/gota icono</title>
    <g id="26.-Digital-Toolkit" stroke="none" stroke-width="1" fill="none" fill-rule="evenodd">
        <g id="01.00-Acelera-pyme--digital-toolkit-09" transform="translate(-82.000000, -1188.000000)" fill="#0F4C99" fill-rule="nonzero">
            <g id="Icon/gota-icono" transform="translate(82.000000, 1188.952912)">
                <g id="Group" transform="translate(0.000000, -0.000000)">
                    <g transform="translate(0.211567, 0.000000)" id="Persona">
                        <g id="Capa_2_1_" transform="translate(1.466667, 1.466667)">
                            <path d="M28.9911111,12.9066667 C27.8177778,8.06666667 24.0044444,4.25333333 19.1644444,3.08 C19.1644444,1.36888889 17.7466667,0 16.0355556,0 C14.3244444,0 12.9066667,1.36888889 12.9066667,3.08 C8.06666667,4.25333333 4.25333333,8.06666667 3.08,12.9066667 C1.36888889,12.9066667 0,14.3244444 0,16.0355556 C0,17.7466667 1.36888889,19.1644444 3.08,19.1644444 C4.25333333,24.0044444 8.06666667,27.8177778 12.9066667,28.9911111 C12.9066667,30.7022222 14.3244444,32.0711111 16.0355556,32.0711111 C17.7466667,32.0711111 19.1644444,30.7022222 19.1644444,28.9911111 C24.0044444,27.8177778 27.8177778,24.0044444 28.9911111,19.1644444 C30.7022222,19.1644444 32.0711111,17.7466667 32.0711111,16.0355556 C32.0711111,14.3244444 30.7022222,12.9066667 28.9911111,12.9066667 Z M16.0355556,0.782222222 C17.3066667,0.782222222 18.3333333,1.80888889 18.3333333,3.08 C18.3333333,3.17777778 18.3333333,3.22666667 18.3333333,3.32444444 C18.1866667,4.49777778 17.2088889,5.37777778 16.0355556,5.37777778 C14.8622222,5.37777778 13.8844444,4.49777778 13.7377778,3.32444444 C13.7377778,3.22666667 13.7377778,3.17777778 13.7377778,3.08 C13.7377778,1.85777778 14.7644444,0.831111111 16.0355556,0.782222222 Z M0.831111111,16.0355556 C0.831111111,14.7644444 1.85777778,13.7377778 3.12888889,13.7377778 C3.22666667,13.7377778 3.27555556,13.7377778 3.37333333,13.7377778 C4.54666667,13.8844444 5.42666667,14.8622222 5.42666667,16.0355556 C5.42666667,17.2088889 4.54666667,18.1866667 3.37333333,18.3333333 C3.27555556,18.3333333 3.22666667,18.3333333 3.12888889,18.3333333 C1.85777778,18.3333333 0.831111111,17.3066667 0.831111111,16.0355556 Z M16.0355556,31.24 C14.7644444,31.24 13.7377778,30.2133333 13.7377778,28.9422222 C13.7377778,28.8444444 13.7377778,28.7955556 13.7377778,28.6977778 C13.8844444,27.5244444 14.8622222,26.6444444 16.0355556,26.6444444 C17.2088889,26.6444444 18.1866667,27.5244444 18.3333333,28.6977778 C18.3333333,28.7955556 18.3333333,28.8444444 18.3333333,28.9422222 C18.3333333,30.2133333 17.3066667,31.24 16.0355556,31.24 Z M19.0666667,28.16 C18.7244444,26.7911111 17.4533333,25.8133333 16.0355556,25.8133333 C14.6177778,25.8133333 13.3466667,26.7911111 13.0044444,28.16 C8.50666667,27.0355556 5.03555556,23.5155556 3.91111111,19.0666667 C5.28,18.7244444 6.25777778,17.4533333 6.25777778,16.0355556 C6.25777778,14.6177778 5.28,13.3466667 3.91111111,13.0044444 C5.03555556,8.50666667 8.55555556,5.03555556 13.0044444,3.91111111 C13.3466667,5.28 14.6177778,6.25777778 16.0355556,6.25777778 C17.4533333,6.25777778 18.7244444,5.28 19.0666667,3.91111111 C23.5644444,5.03555556 27.0355556,8.55555556 28.16,13.0044444 C26.7911111,13.3466667 25.8133333,14.6177778 25.8133333,16.0355556 C25.8133333,17.4533333 26.7911111,18.7244444 28.16,19.0666667 C27.0844444,23.5644444 23.5644444,27.0355556 19.0666667,28.16 Z M28.9422222,18.3333333 C28.8444444,18.3333333 28.7955556,18.3333333 28.6977778,18.3333333 C27.5244444,18.1866667 26.6444444,17.2088889 26.6444444,16.0355556 C26.6444444,14.8622222 27.5244444,13.8844444 28.6977778,13.7377778 C28.7955556,13.7377778 28.8444444,13.7377778 28.9422222,13.7377778 C30.2133333,13.7377778 31.24,14.7644444 31.24,16.0355556 C31.24,17.3066667 30.2133333,18.3333333 28.9422222,18.3333333 Z" id="Shape"></path>
                            <path d="M16.0355556,6.79555556 C10.9511111,6.79555556 6.79555556,10.9511111 6.79555556,16.0355556 C6.79555556,21.12 10.9511111,25.2755556 16.0355556,25.2755556 C21.12,25.2755556 25.2755556,21.12 25.2755556,16.0355556 C25.2755556,10.9511111 21.12,6.79555556 16.0355556,6.79555556 Z M20.9244444,19.8 C21.2666667,18.7244444 21.4622222,17.5511111 21.4622222,16.4266667 L24.4444444,16.4266667 C24.3466667,18.1866667 23.76,19.8488889 22.6355556,21.2177778 C22.1466667,20.68 21.56,20.24 20.9244444,19.8 Z M9.43555556,21.2177778 C8.36,19.8488889 7.72444444,18.1866667 7.62666667,16.4266667 L10.6088889,16.4266667 C10.6577778,17.6 10.8044444,18.7244444 11.1466667,19.8 C10.5111111,20.24 9.92444444,20.68 9.43555556,21.2177778 Z M11.1466667,12.2222222 C10.8044444,13.2977778 10.6088889,14.4711111 10.6088889,15.5955556 L7.62666667,15.5955556 C7.72444444,13.8355556 8.31111111,12.1733333 9.43555556,10.8044444 C9.92444444,11.3911111 10.5111111,11.8311111 11.1466667,12.2222222 L11.1466667,12.2222222 Z M16.4266667,13.64 C17.7466667,13.5911111 19.0177778,13.2488889 20.1911111,12.6622222 C20.4844444,13.64 20.6311111,14.6177778 20.68,15.6444444 L16.4755556,15.6444444 L16.4266667,13.64 L16.4266667,13.64 Z M16.4266667,12.8088889 L16.4266667,7.77333333 C17.9911111,8.65333333 19.2133333,10.0711111 19.8977778,11.88 C18.8711111,12.4177778 17.6488889,12.76 16.4266667,12.8088889 Z M15.6444444,7.77333333 L15.6444444,12.8088889 C14.4222222,12.76 13.2488889,12.4177778 12.1733333,11.88 C12.8577778,10.0711111 14.0311111,8.60444444 15.6444444,7.77333333 L15.6444444,7.77333333 Z M15.6444444,13.64 L15.6444444,15.6444444 L11.44,15.6444444 C11.4888889,14.6177778 11.6355556,13.64 11.9288889,12.6622222 C13.0533333,13.2488889 14.3244444,13.5911111 15.6444444,13.64 L15.6444444,13.64 Z M11.3911111,16.4266667 L15.5955556,16.4266667 L15.5955556,18.4311111 C14.2755556,18.48 13.0044444,18.8222222 11.8311111,19.4088889 C11.5866667,18.4311111 11.44,17.4533333 11.3911111,16.4266667 Z M15.6444444,19.2622222 L15.6444444,24.2977778 C14.08,23.4177778 12.8577778,22 12.1733333,20.1911111 C13.2488889,19.6533333 14.4222222,19.3111111 15.6444444,19.2622222 Z M16.4266667,24.2977778 L16.4266667,19.2622222 C17.6488889,19.3111111 18.8222222,19.6533333 19.8977778,20.1911111 C19.2133333,22 18.04,23.4666667 16.4266667,24.2977778 Z M16.4266667,18.4311111 L16.4266667,16.4266667 L20.6311111,16.4266667 C20.5822222,17.4533333 20.4355556,18.4311111 20.1911111,19.4088889 C19.0177778,18.8222222 17.7466667,18.48 16.4266667,18.4311111 Z M21.5111111,15.6444444 C21.4622222,14.52 21.3155556,13.3466667 20.9733333,12.2711111 C21.6088889,11.88 22.1955556,11.3911111 22.7333333,10.8533333 C23.8088889,12.2222222 24.4444444,13.8844444 24.5422222,15.6444444 C24.5422222,15.6444444 21.5111111,15.6444444 21.5111111,15.6444444 Z M22.1466667,10.2177778 C21.7066667,10.7066667 21.2177778,11.0977778 20.68,11.44 C20.0933333,9.97333333 19.2133333,8.75111111 18.0888889,7.82222222 C19.6044444,8.21333333 21.0222222,9.04444444 22.1466667,10.2177778 L22.1466667,10.2177778 Z M14.0311111,7.82222222 C12.9066667,8.75111111 12.0266667,9.97333333 11.44,11.44 C10.9022222,11.0977778 10.4133333,10.6577778 9.97333333,10.2177778 C11.0488889,9.04444444 12.4666667,8.21333333 14.0311111,7.82222222 L14.0311111,7.82222222 Z M9.92444444,21.8533333 C10.3644444,21.3644444 10.8533333,20.9733333 11.3911111,20.6311111 C11.9777778,22.0977778 12.8577778,23.32 13.9822222,24.2488889 C12.4666667,23.8577778 11.0488889,23.0266667 9.92444444,21.8533333 L9.92444444,21.8533333 Z M18.04,24.2488889 C19.1644444,23.32 20.0444444,22.0977778 20.6311111,20.6311111 C21.1688889,20.9733333 21.6577778,21.4133333 22.0977778,21.8533333 C21.0222222,23.0266667 19.6044444,23.8577778 18.04,24.2488889 L18.04,24.2488889 Z" id="Shape"></path>
                        </g>
                    </g>
                </g>
            </g>
        </g>
    </g>
</svg>